<?xml version="1.0" ?>

<!DOCTYPE svg  PUBLIC '-//W3C//DTD SVG 1.1//EN'  'http://www.w3.org/Graphics/SVG/1.1/DTD/svg11.dtd'>

<!-- Uploaded to: SVG Repo, www.svgrepo.com, Generator: SVG Repo Mixer Tools -->
<svg width="800px" height="800px" viewBox="0 0 48 48" enable-background="new 0 0 48 48" id="Layer_3" version="1.1" xml:space="preserve" xmlns="http://www.w3.org/2000/svg" xmlns:xlink="http://www.w3.org/1999/xlink">

<g>

<path d="M18.979,4.661c-2.212,0.573-4.284,1.494-6.129,2.735L9.857,4.402l-5.656,5.657l3.042,3.042   c-1.163,1.784-2.036,3.766-2.583,5.883H0v10.031h4.66c0.56,2.165,1.458,4.193,2.66,6.009l-3.118,3.118l5.656,5.656l3.119-3.118   c1.819,1.205,3.853,2.104,6.023,2.664V48h4.062v-8.047C14.665,39.465,8,32.52,8,24c0-8.521,6.665-15.465,15.062-15.953V0h-4.083   V4.661z" fill="white"/>

<path d="M15,24c0,4.654,3.532,8.482,8.062,8.951v-4.046C20.75,28.466,19,26.44,19,24c0-2.44,1.75-4.466,4.062-4.905   v-4.046C18.532,15.518,15,19.346,15,24z" fill="white"/>

<polygon fill="white" points="44.109,6.435 41.364,6.435 41.364,0 26,0 26,14.762 41.364,14.762 41.364,9.865 44.109,9.865    44.109,18.311 26,18.311 26,19.812 26,21.741 26,24.708 26,48 33.011,48 33.011,32.693 30.598,23.633 29.392,23.633 29.392,21.741    44.109,21.741 47.516,21.741 47.516,18.311 47.516,9.865 47.516,6.435  "/>

</g>

</svg>